<svg width="24" height="24" fill="none" xmlns="http://www.w3.org/2000/svg"><g clip-path="url(#clip0)" fill="#59C164"><path d="M7.781 15.516h12.704a.7.7 0 00.675-.51l2.813-9.844a.703.703 0 00-.676-.896H6.158l-.503-2.262a.703.703 0 00-.686-.55H.703a.703.703 0 100 1.405h3.701l2.54 11.426a2.11 2.11 0 00-1.272 1.934c0 1.163.946 2.11 2.11 2.11h12.703a.703.703 0 100-1.407H7.78a.704.704 0 010-1.406z"/><path d="M7.078 20.438c0 1.163.946 2.11 2.11 2.11 1.163 0 2.11-.947 2.11-2.11 0-1.163-.947-2.11-2.11-2.11-1.164 0-2.11.947-2.11 2.11zm9.891 0c0 1.163.946 2.11 2.11 2.11a2.112 2.112 0 002.109-2.11c0-1.163-.946-2.11-2.11-2.11-1.163 0-2.11.947-2.11 2.11z"/></g><defs><clipPath id="clip0"><path fill="#fff" d="M0 0h24v24H0z"/></clipPath></defs></svg>