<svg width="32" height="32" fill="none" xmlns="http://www.w3.org/2000/svg"><path d="M12.921 2.654a4.715 4.715 0 016.158 0 4.714 4.714 0 003.141 1.144 4.715 4.715 0 014.717 3.957 4.714 4.714 0 001.671 2.896 4.715 4.715 0 011.07 6.063 4.707 4.707 0 00-.58 3.293 4.715 4.715 0 01-3.08 5.332 4.715 4.715 0 00-2.56 2.149 4.715 4.715 0 01-5.786 2.106 4.714 4.714 0 00-3.344 0 4.715 4.715 0 01-5.785-2.106 4.715 4.715 0 00-2.562-2.149 4.715 4.715 0 01-3.078-5.332 4.715 4.715 0 00-.58-3.293 4.715 4.715 0 011.069-6.063 4.714 4.714 0 001.671-2.896A4.715 4.715 0 019.78 3.798a4.714 4.714 0 003.141-1.144z" fill="#EDEDED"/><path d="M16 8l3.01 3.858 4.598 1.67-2.739 4.054-.167 4.89L16 21.12l-4.702 1.352-.167-4.89-2.74-4.054 4.6-1.67L16 8z" fill="#59C164"/></svg>