<svg width="32" height="32" fill="none" xmlns="http://www.w3.org/2000/svg"><path d="M12.921 2.654a4.715 4.715 0 016.158 0 4.714 4.714 0 003.141 1.144 4.715 4.715 0 014.717 3.957 4.714 4.714 0 001.671 2.896 4.715 4.715 0 011.07 6.063 4.707 4.707 0 00-.58 3.293 4.715 4.715 0 01-3.08 5.332 4.715 4.715 0 00-2.56 2.149 4.715 4.715 0 01-5.786 2.106 4.714 4.714 0 00-3.344 0 4.715 4.715 0 01-5.785-2.106 4.715 4.715 0 00-2.562-2.149 4.715 4.715 0 01-3.078-5.332 4.715 4.715 0 00-.58-3.293 4.715 4.715 0 011.069-6.063 4.714 4.714 0 001.671-2.896A4.715 4.715 0 019.78 3.798a4.714 4.714 0 003.141-1.144z" fill="#EDEDED"/><path d="M7.35 19.082c-.505 0-.757-.359-.757-1.076v-4.724c0-.681.234-1.022.702-1.022.286 0 .553.164.803.493l2.8 3.703v-3.12c0-.717.252-1.076.757-1.076.504 0 .757.359.757 1.076v4.843c0 .626-.232.94-.694.94-.304 0-.592-.183-.866-.548l-2.745-3.63v3.065c0 .717-.253 1.076-.757 1.076zm8.998-6.74c.717 0 1.076.237 1.076.712 0 .468-.359.702-1.076.702h-1.24v1.185h1.066c.718 0 1.076.235 1.076.703 0 .468-.358.702-1.076.702h-1.067v1.25h1.286c.718 0 1.076.234 1.076.702 0 .468-.358.702-1.076.702h-1.77c-.382 0-.65-.064-.802-.192-.152-.133-.228-.389-.228-.766V13.41c0-.395.076-.671.228-.83.152-.158.426-.237.821-.237h1.706zm3.598 6.74c-.54 0-.888-.334-1.04-1.003l-1.067-4.651a2.064 2.064 0 01-.054-.466c0-.212.073-.383.219-.51a.8.8 0 01.547-.192c.401 0 .644.22.73.657l.802 4.232 1.104-4.25c.109-.426.389-.639.839-.639.443 0 .72.22.83.657l1.085 4.232.793-4.132c.098-.505.353-.757.766-.757.22 0 .399.064.538.192.14.127.21.298.21.51 0 .152-.018.301-.055.447l-1.158 4.67c-.09.359-.197.605-.319.739-.152.176-.395.264-.73.264-.529 0-.866-.283-1.012-.848l-.994-3.803-.94 3.72c-.157.621-.522.931-1.094.931z" fill="#000"/></svg>