<svg width="24" height="24" fill="none" xmlns="http://www.w3.org/2000/svg"><g clip-path="url(#clip0)"><path d="M20.484 3.513c-4.687-4.686-12.285-4.684-16.97.003-4.687 4.687-4.685 12.285.002 16.97 4.687 4.686 12.285 4.685 16.97-.002a12 12 0 00-.002-16.97zm-2.31 13.202l-.002.002v-.004l-.608.604a3.2 3.2 0 01-3.02.864 10.633 10.633 0 01-3.088-1.384 14.27 14.27 0 01-2.436-1.964 14.374 14.374 0 01-1.82-2.208 11.2 11.2 0 01-1.368-2.768 3.2 3.2 0 01.8-3.268l.712-.712c.198-.199.52-.2.718-.001l.002.001 2.248 2.248c.198.198.2.52.001.719l-.001.001-1.32 1.32c-.38.375-.427.97-.112 1.4a15.436 15.436 0 001.58 1.844c.64.643 1.336 1.228 2.08 1.748.43.3 1.012.25 1.384-.12l1.276-1.296a.508.508 0 01.72 0l2.252 2.256c.198.198.2.52.001.718z" fill="#fff"/></g><defs><clipPath id="clip0"><path fill="#fff" d="M0 0h24v24H0z"/></clipPath></defs></svg>