<svg width="32" height="32" fill="none" xmlns="http://www.w3.org/2000/svg"><path d="M12.921 2.654a4.715 4.715 0 016.158 0 4.714 4.714 0 003.141 1.144 4.715 4.715 0 014.717 3.957 4.714 4.714 0 001.671 2.896 4.715 4.715 0 011.07 6.063 4.707 4.707 0 00-.58 3.293 4.715 4.715 0 01-3.08 5.332 4.715 4.715 0 00-2.56 2.149 4.715 4.715 0 01-5.786 2.106 4.714 4.714 0 00-3.344 0 4.715 4.715 0 01-5.785-2.106 4.715 4.715 0 00-2.562-2.149 4.715 4.715 0 01-3.078-5.332 4.715 4.715 0 00-.58-3.293 4.715 4.715 0 011.069-6.063 4.714 4.714 0 001.671-2.896A4.715 4.715 0 019.78 3.798a4.714 4.714 0 003.141-1.144z" fill="#EDEDED"/><path d="M10 12.65c0-.695.258-1.294.775-1.799.528-.515 1.17-.772 1.928-.772.769 0 1.412.252 1.928.757a2.41 2.41 0 01.775 1.813c0 .705-.258 1.309-.775 1.814-.516.504-1.159.756-1.928.756-.758 0-1.4-.252-1.928-.756-.517-.505-.775-1.11-.775-1.814zm1.808 0c0 .22.086.42.258.598a.915.915 0 00.637.253c.253 0 .47-.084.654-.253a.786.786 0 00.276-.599.756.756 0 00-.276-.6.898.898 0 00-.654-.251.876.876 0 00-.637.252.81.81 0 00-.258.6zm4.786 6.653c0-.693.258-1.293.775-1.797.528-.515 1.17-.773 1.928-.773.769 0 1.412.252 1.928.757.517.494.775 1.099.775 1.814 0 .704-.258 1.308-.775 1.813-.516.505-1.159.757-1.928.757-.758 0-1.4-.252-1.928-.757-.517-.505-.775-1.11-.775-1.814zm1.808 0c0 .221.086.421.258.6a.915.915 0 00.637.252.931.931 0 00.654-.236.827.827 0 00.258-.616.795.795 0 00-.258-.614c-.16-.158-.378-.237-.654-.237a.876.876 0 00-.637.252.81.81 0 00-.258.6zM12.823 22c-.286 0-.527-.09-.723-.268a.862.862 0 01-.292-.662c0-.253.143-.61.43-1.073L17.92 10.9c.378-.6.792-.899 1.24-.899.7 0 1.05.268 1.05.804 0 .274-.115.594-.345.962l-5.82 9.32c-.378.61-.785.914-1.222.914z" fill="#EB5757"/></svg>