<svg width="63" height="63" fill="none" xmlns="http://www.w3.org/2000/svg"><g filter="url(#filter0_d)"><rect x="4" width="55" height="55" rx="5" fill="#59C164"/><path d="M16.053 38.6v2.168h2.544V38.6h1.147V44h-1.147v-2.33h-2.544V44h-1.148v-5.4h1.148zm8.716 5.4l-.23-.752H24.5c-.26.329-.523.553-.786.674-.264.117-.602.176-1.016.176-.53 0-.945-.144-1.245-.43-.296-.286-.444-.692-.444-1.216 0-.556.206-.976.62-1.26.413-.283 1.043-.437 1.89-.464l.932-.029v-.288c0-.345-.081-.602-.244-.771-.16-.173-.409-.26-.747-.26-.277 0-.542.041-.796.123a6.009 6.009 0 00-.732.288l-.371-.82c.293-.153.613-.269.962-.347a4.34 4.34 0 01.986-.122c.687 0 1.204.15 1.552.45.352.299.528.769.528 1.41V44h-.82zm-1.71-.781c.417 0 .75-.116 1.002-.347.253-.234.38-.562.38-.981v-.47l-.693.03c-.54.02-.934.11-1.182.274-.244.16-.366.405-.366.737 0 .24.072.428.215.561.143.13.358.196.645.196zm8.819-3.238c0 .639-.373 1.024-1.118 1.158v.039c.416.049.735.18.957.395.221.215.332.493.332.835 0 .511-.195.905-.586 1.182-.387.273-.952.41-1.694.41H27.19v-5.4h2.569c1.413 0 2.119.46 2.119 1.381zm-1.006 2.359c0-.26-.1-.445-.303-.552-.201-.11-.504-.166-.908-.166h-1.323v1.528h1.352c.788 0 1.182-.27 1.182-.81zm-.142-2.26c0-.216-.084-.37-.253-.465-.166-.097-.416-.146-.747-.146h-1.392v1.299h1.22c.385 0 .676-.05.875-.147.198-.1.297-.282.297-.542zm4.864 4.018c-.84 0-1.498-.245-1.973-.733-.472-.491-.708-1.167-.708-2.026 0-.882.22-1.576.66-2.08.439-.505 1.043-.757 1.81-.757.714 0 1.277.216 1.69.65.414.432.62 1.028.62 1.786v.62h-3.598c.016.525.158.928.425 1.212.266.28.642.42 1.127.42.32 0 .616-.03.89-.088.276-.062.572-.163.888-.303v.932c-.28.134-.563.228-.85.284a5.204 5.204 0 01-.981.083zm-.21-4.727c-.365 0-.658.116-.88.347-.217.23-.347.568-.39 1.01h2.451c-.006-.445-.113-.782-.322-1.01-.208-.231-.495-.347-.86-.347zm6.352 4.727c-.683 0-1.214-.246-1.591-.738h-.069c.046.456.069.733.069.83v2.212h-1.148V38.6h.928c.026.1.08.341.16.722h.06c.358-.547.895-.82 1.61-.82.675 0 1.199.244 1.573.732.378.489.566 1.174.566 2.056 0 .882-.191 1.57-.576 2.066-.38.494-.908.742-1.582.742zm-.278-4.658c-.456 0-.79.133-1.001.4-.208.267-.313.693-.313 1.28v.17c0 .658.105 1.135.313 1.43.208.294.548.44 1.02.44.398 0 .704-.163.919-.488.214-.326.322-.79.322-1.392 0-.605-.108-1.063-.323-1.372-.211-.312-.524-.468-.937-.468zm4.97 1.801l-1.81-2.641h1.308l1.23 1.89 1.24-1.89h1.3l-1.817 2.641L49.789 44h-1.3l-1.333-2.022L45.828 44H44.53l1.9-2.759z" fill="#fff"/><path d="M32 12v16m0-16l-5 5m5-5l5 5" stroke="#fff"/></g><defs><filter id="filter0_d" x="0" y="0" width="63" height="63" filterUnits="userSpaceOnUse" color-interpolation-filters="sRGB"><feFlood flood-opacity="0" result="BackgroundImageFix"/><feColorMatrix in="SourceAlpha" values="0 0 0 0 0 0 0 0 0 0 0 0 0 0 0 0 0 0 127 0"/><feOffset dy="4"/><feGaussianBlur stdDeviation="2"/><feColorMatrix values="0 0 0 0 0 0 0 0 0 0 0 0 0 0 0 0 0 0 0.25 0"/><feBlend in2="BackgroundImageFix" result="effect1_dropShadow"/><feBlend in="SourceGraphic" in2="effect1_dropShadow" result="shape"/></filter></defs></svg>