<svg width="243" height="73" fill="none" xmlns="http://www.w3.org/2000/svg"><path d="M44.341 9.335V8.168a8.168 8.168 0 00-16.336 0v5.835h11.668a4.668 4.668 0 004.668-4.668zm-5.847 51.137v-26.97a3.3 3.3 0 116.601 0v26.97a3.3 3.3 0 01-6.6 0z" fill="#59C164"/><path d="M53.897 26h-3.006v-6.3h2.727c.558 0 .999.138 1.323.414.324.27.486.642.486 1.116 0 .324-.075.603-.225.837a1.167 1.167 0 01-.603.495c.42.066.753.249.999.549.246.3.369.678.369 1.134 0 .534-.186.96-.558 1.278-.372.318-.876.477-1.512.477zm-2.34-3.051v2.448h2.223c.468 0 .831-.108 1.089-.324.258-.216.387-.519.387-.909 0-.384-.129-.681-.387-.891-.258-.216-.621-.324-1.089-.324h-2.223zm0-2.646v2.061h1.953c.402 0 .711-.087.927-.261.222-.174.333-.426.333-.756 0-.336-.111-.594-.333-.774-.216-.18-.525-.27-.927-.27h-1.953zm9.671 5.805c-.666 0-1.218-.216-1.656-.648-.438-.438-.657-.984-.657-1.638 0-.648.222-1.188.666-1.62.438-.438.99-.657 1.656-.657.504 0 .942.105 1.314.315v.603a2.44 2.44 0 00-1.224-.333c-.504 0-.92.162-1.25.486-.33.312-.496.717-.496 1.215 0 .486.165.891.495 1.215.336.318.753.477 1.251.477.48 0 .915-.126 1.305-.378v.594a2.665 2.665 0 01-1.404.369zm6.648 0c-.678 0-1.248-.213-1.71-.639-.456-.42-.684-.966-.684-1.638 0-.648.204-1.191.612-1.629.414-.438.945-.657 1.593-.657.348 0 .657.072.927.216.27.138.483.321.64.549a2.66 2.66 0 01.467 1.494v.18h-3.573c.036.468.222.843.558 1.125.342.276.774.414 1.296.414.504 0 .97-.135 1.395-.405v.576c-.354.276-.86.414-1.52.414zm-1.719-2.655h2.907a1.479 1.479 0 00-.378-.909c-.222-.276-.564-.414-1.026-.414-.432 0-.786.132-1.062.396-.27.27-.417.579-.44.927zm11.079 3.834h-.621v-1.854h.549c.48-.636.726-1.692.738-3.168l.009-.612h3.23v3.78h.81v1.854h-.63V26h-4.085v1.287zm.648-1.854h2.61V22.22h-1.98v.261c0 1.296-.21 2.28-.63 2.952zm6.493.567v-.594c.03.006.087.009.17.009.379 0 .637-.24.775-.72.114-.384.186-.936.216-1.656l.036-1.386h3.249V26h-.648v-3.78h-1.98l-.027.837a17.21 17.21 0 01-.036.702c-.054.588-.141 1.02-.261 1.296a1.676 1.676 0 01-.495.711c-.222.18-.492.261-.81.243a1.22 1.22 0 01-.19-.009zm8.303 0h-.738l1.296-1.737c-.354-.06-.627-.201-.819-.423-.186-.228-.279-.516-.279-.864 0-.402.135-.723.405-.963.276-.24.66-.36 1.152-.36h2.241V26h-.648v-1.62h-1.395L92.68 26zm1.116-2.187h1.494V22.22h-1.494c-.318 0-.564.069-.738.207-.168.138-.252.336-.252.594 0 .258.084.456.252.594.174.132.42.198.738.198zM106.152 26h-2.439v-4.347h2.286c.414 0 .735.102.963.306.234.198.351.465.351.801 0 .468-.18.786-.54.954.552.162.828.534.828 1.116 0 .366-.126.654-.378.864-.252.204-.609.306-1.071.306zm-1.791-1.962v1.395h1.656c.294 0 .522-.06.684-.18a.6.6 0 00.243-.513.6.6 0 00-.243-.513c-.162-.126-.39-.189-.684-.189h-1.656zm0-1.818v1.278h1.458c.27 0 .48-.054.63-.162a.565.565 0 00.225-.477c0-.426-.285-.639-.855-.639h-1.458zm7.084 3.78h-.603v-4.347h.648v3.393l2.781-3.393h.603V26h-.648v-3.384L111.445 26zm6.95 1.287h-.621v-1.854h.549c.48-.636.726-1.692.738-3.168l.009-.612h3.231v3.78h.81v1.854h-.63V26h-4.086v1.287zm.648-1.854h2.61V22.22h-1.98v.261c0 1.296-.21 2.28-.63 2.952zm9.148.675c-.678 0-1.248-.213-1.71-.639-.456-.42-.684-.966-.684-1.638 0-.648.204-1.191.612-1.629.414-.438.945-.657 1.593-.657.348 0 .657.072.927.216.27.138.483.321.639.549.156.228.273.471.351.729.078.252.117.507.117.765v.18h-3.573c.036.468.222.843.558 1.125.342.276.774.414 1.296.414.504 0 .969-.135 1.395-.405v.576c-.354.276-.861.414-1.521.414zm-1.719-2.655h2.907a1.479 1.479 0 00-.378-.909c-.222-.276-.564-.414-1.026-.414-.432 0-.786.132-1.062.396-.27.27-.417.579-.441.927zm7.058-1.233c.438-.45 1.002-.675 1.692-.675s1.254.225 1.692.675c.438.438.657.975.657 1.611a2.19 2.19 0 01-.657 1.611c-.444.444-1.008.666-1.692.666-.684 0-1.248-.222-1.692-.666a2.19 2.19 0 01-.657-1.611c0-.636.219-1.173.657-1.611zm3.375 1.611c0-.48-.159-.885-.477-1.215-.318-.324-.72-.486-1.206-.486s-.888.162-1.206.486c-.318.33-.477.735-.477 1.215 0 .474.159.876.477 1.206.318.324.72.486 1.206.486s.888-.162 1.206-.486c.318-.33.477-.732.477-1.206zM141.361 26h-.648v-4.347h.648v1.827h2.673v-1.827h.648V26h-.648v-1.935h-2.673V26zm8.256-.477c.3 0 .585-.069.855-.207a1.98 1.98 0 00.657-.522v-.603a2.553 2.553 0 00-1.413-.432c-.396 0-.711.078-.945.234a.735.735 0 00-.342.639c0 .282.111.501.333.657.222.156.507.234.855.234zm-.18.585c-.462 0-.855-.126-1.179-.378-.318-.264-.477-.618-.477-1.062 0-.438.168-.789.504-1.053.336-.258.762-.387 1.278-.387.564 0 1.086.141 1.566.423v-.432c0-.726-.477-1.089-1.431-1.089-.51 0-.984.147-1.422.441v-.63c.426-.264.945-.396 1.557-.396.594 0 1.065.141 1.413.423.354.276.531.672.531 1.188v1.791c0 .168.036.3.108.396.078.096.18.144.306.144.096 0 .18-.018.252-.054v.504c-.096.066-.24.099-.432.099a.88.88 0 01-.549-.171c-.144-.12-.234-.294-.27-.522-.438.51-1.023.765-1.755.765zm8.116 0c-.744 0-1.323-.258-1.737-.774-.414-.516-.621-1.218-.621-2.106 0-1.14.291-1.977.873-2.511.198-.198.543-.396 1.035-.594.216-.078.432-.144.648-.198.222-.06.459-.117.711-.171a13.029 13.029 0 01.801-.153v.603a43.06 43.06 0 00-1.431.297c-.666.156-1.161.405-1.485.747-.336.354-.516.891-.54 1.611.18-.312.438-.558.774-.738.342-.18.726-.27 1.152-.27.57 0 1.047.192 1.431.576.384.378.576.864.576 1.458 0 .654-.21 1.188-.63 1.602-.42.414-.939.621-1.557.621zm0-.585c.426 0 .786-.147 1.08-.441.3-.3.45-.684.45-1.152 0-.45-.144-.81-.432-1.08-.282-.276-.636-.414-1.062-.414-.39 0-.741.117-1.053.351a1.934 1.934 0 00-.675.81c.03.612.189 1.086.477 1.422.294.336.699.504 1.215.504zm4.666.477v-.594c.03.006.087.009.171.009.378 0 .636-.24.774-.72.114-.384.186-.936.216-1.656l.036-1.386h3.249V26h-.648v-3.78h-1.98l-.027.837a17.21 17.21 0 01-.036.702c-.054.588-.141 1.02-.261 1.296a1.676 1.676 0 01-.495.711c-.222.18-.492.261-.81.243a1.22 1.22 0 01-.189-.009zm11.76.108c-.576 0-1.062-.189-1.458-.567-.396-.378-.621-.858-.675-1.44h-1.071V26h-.648v-4.347h.648v1.863h1.08c.054-.576.279-1.047.675-1.413a2.058 2.058 0 011.449-.558c.636 0 1.155.219 1.557.657.414.444.621.987.621 1.629s-.207 1.182-.621 1.62c-.402.438-.921.657-1.557.657zm0-.585c.45 0 .819-.162 1.107-.486.288-.324.432-.726.432-1.206 0-.486-.144-.891-.432-1.215a1.414 1.414 0 00-1.107-.486c-.444 0-.81.162-1.098.486-.288.324-.432.729-.432 1.215 0 .48.144.882.432 1.206.288.324.654.486 1.098.486zm5.221 1.764h-.621v-1.854h.549c.48-.636.726-1.692.738-3.168l.009-.612h3.231v3.78h.81v1.854h-.63V26H179.2v1.287zm.648-1.854h2.61V22.22h-1.98v.261c0 1.296-.21 2.28-.63 2.952zm9.148.675c-.678 0-1.248-.213-1.71-.639-.456-.42-.684-.966-.684-1.638 0-.648.204-1.191.612-1.629.414-.438.945-.657 1.593-.657.348 0 .657.072.927.216.27.138.483.321.639.549.156.228.273.471.351.729.078.252.117.507.117.765v.18h-3.573c.036.468.222.843.558 1.125.342.276.774.414 1.296.414.504 0 .969-.135 1.395-.405v.576c-.354.276-.861.414-1.521.414zm-1.719-2.655h2.907a1.479 1.479 0 00-.378-.909c-.222-.276-.564-.414-1.026-.414-.432 0-.786.132-1.062.396-.27.27-.417.579-.441.927zM194.641 26h-.648v-4.347h.648v1.827h2.673v-1.827h.648V26h-.648v-1.935h-2.673V26zm7.392 0h-.603v-4.347h.648v3.393l2.781-3.393h.603V26h-.648v-3.384L202.033 26zm7.292 0h-.738l1.296-1.737c-.354-.06-.627-.201-.819-.423-.186-.228-.279-.516-.279-.864 0-.402.135-.723.405-.963.276-.24.66-.36 1.152-.36h2.241V26h-.648v-1.62h-1.395L209.325 26zm1.116-2.187h1.494V22.22h-1.494c-.318 0-.564.069-.738.207-.168.138-.252.336-.252.594 0 .258.084.456.252.594.174.132.42.198.738.198z" fill="#000"/><path d="M40.921 48.313H22.633a3.3 3.3 0 110-6.601H40.92a3.3 3.3 0 010 6.6z" fill="#59C164"/><path d="M22.161 22c1.91 0 3.456 1.823 3.456 4.073v33.2c0 2.25-1.547 4.073-3.456 4.073-1.908 0-3.455-1.824-3.455-4.073v-33.2c0-2.25 1.547-4.073 3.455-4.073zm32.712 31.23c0 1.302.307 2.408.922 3.317.712 1.032 1.695 1.548 2.949 1.548 1.253 0 2.224-.516 2.912-1.548.59-.91.884-2.015.884-3.317 0-1.303-.294-2.396-.884-3.281-.688-1.008-1.66-1.511-2.912-1.511-1.23 0-2.2.503-2.912 1.51-.64.91-.959 2.004-.959 3.282zm7.889 8.33c-1.23 1.5-2.9 2.249-5.014 2.249-2.678 0-4.89-1.106-6.635-3.318-1.597-2.04-2.396-4.435-2.396-7.188 0-2.777.836-5.197 2.507-7.261 1.77-2.212 4.018-3.318 6.746-3.318 1.99 0 3.587.713 4.791 2.138.689-1.253 1.635-1.88 2.839-1.88 1.966 0 2.949 1.438 2.949 4.313v11.98c0 2.9-.983 4.35-2.95 4.35-1.302 0-2.248-.689-2.838-2.065zm9.184-8.294v-2.948c0-7.643 1.806-11.993 5.419-13.05 1.08-.319 3.231-.479 6.45-.479 1.327 0 2.114-.086 2.36-.258.27-.196.405-.43.405-.7 0-.369.283-.676.848-.922a3.502 3.502 0 011.364-.294c1.302 0 1.953 1.02 1.953 3.059 0 .836-.38 1.56-1.142 2.175-.615.491-1.389.823-2.323.995a10.55 10.55 0 01-2.064.184H81.31c-1.303 0-2.298.504-2.986 1.512-.467.712-.7 1.634-.7 2.764h.11c1.229-.958 2.802-1.437 4.718-1.437 2.876 0 5.075.934 6.599 2.801 1.376 1.72 2.064 4.055 2.064 7.004 0 3.145-.836 5.64-2.507 7.483-1.67 1.843-4.067 2.764-7.188 2.764-3.12 0-5.504-1.02-7.15-3.06-1.549-1.891-2.323-4.423-2.323-7.593zm5.677.332c0 3.416 1.265 5.124 3.796 5.124 1.082 0 1.979-.369 2.691-1.106.737-.762 1.106-2.101 1.106-4.018 0-3.22-1.265-4.829-3.797-4.829-1.278 0-2.248.504-2.912 1.512-.59.884-.884 1.99-.884 3.317zm28.863-5.53h-4.423c-.909 0-1.364.456-1.364 1.365v9.436c0 1.5-.418 2.667-1.253 3.502-.836.836-2.003 1.253-3.502 1.253-1.327 0-2.236-.086-2.728-.258-.91-.344-1.364-1.044-1.364-2.1 0-1.033.332-1.709.995-2.028.468-.246 1.266-.369 2.397-.369v-9.4c0-2.432.54-4.128 1.621-5.086 1.008-.934 2.74-1.4 5.198-1.4h7.372c1.204 0 2.028.417 2.47 1.252.319.59.479 1.524.479 2.802v12.238c0 2.9-.983 4.35-2.949 4.35-1.179 0-2.003-.455-2.47-1.364-.319-.664-.479-1.66-.479-2.986V48.069zm18.778 7.005h-2.838v4.276c0 2.9-.983 4.35-2.949 4.35-1.991 0-2.986-1.45-2.986-4.35V47.22c0-2.875.995-4.313 2.986-4.313 1.966 0 2.949 1.438 2.949 4.313v3.981h2.875c.344-2.58 1.339-4.657 2.986-6.23 1.671-1.572 3.797-2.358 6.377-2.358 2.998 0 5.369 1.056 7.114 3.17 1.622 1.94 2.433 4.447 2.433 7.52 0 3.046-.823 5.516-2.47 7.408-1.72 1.99-4.079 2.986-7.077 2.986-2.605 0-4.743-.786-6.414-2.359-1.671-1.573-2.666-3.662-2.986-6.266zm6.009-1.843c0 3.342 1.13 5.013 3.391 5.013 2.285 0 3.428-1.671 3.428-5.014 0-1.351-.234-2.481-.7-3.39-.59-1.18-1.499-1.77-2.728-1.77s-2.138.59-2.728 1.77c-.442.909-.663 2.039-.663 3.39zm21.965 5.713h6.377V47.737h-4.423c-.91 0-1.364.455-1.364 1.364v7.446c0 .762-.197 1.56-.59 2.396zm10.1 4.423h-13.565c0 1.72-.025 2.716-.074 2.986-.221 1.18-.86 1.77-1.917 1.77-1.843 0-2.764-.971-2.764-2.913v-3.796c0-1.254.295-2.015.884-2.286a30.189 30.189 0 011.586-.331c.589-.27.884-1.02.884-2.249v-7.52c0-2.211.59-3.796 1.77-4.755 1.081-.86 2.752-1.29 5.013-1.29h7.409c1.204 0 2.027.418 2.469 1.253.32.59.48 1.524.48 2.802v11.906c1.72 0 2.58.848 2.58 2.543v3.723c0 1.942-.922 2.912-2.765 2.912-1.032 0-1.658-.602-1.88-1.806-.073-.32-.11-1.302-.11-2.949zm11.766-10.136c0 1.302.308 2.408.922 3.317.713 1.032 1.696 1.548 2.949 1.548s2.224-.516 2.912-1.548c.59-.91.885-2.015.885-3.317 0-1.303-.295-2.396-.885-3.281-.688-1.008-1.659-1.511-2.912-1.511-1.229 0-2.2.503-2.912 1.51-.639.91-.959 2.004-.959 3.282zm7.889 8.33c-1.229 1.5-2.9 2.249-5.013 2.249-2.679 0-4.891-1.106-6.635-3.318-1.598-2.04-2.396-4.435-2.396-7.188 0-2.777.835-5.197 2.506-7.261 1.769-2.212 4.018-3.318 6.746-3.318 1.99 0 3.588.713 4.792 2.138.688-1.253 1.634-1.88 2.838-1.88 1.966 0 2.949 1.438 2.949 4.313v11.98c0 2.9-.983 4.35-2.949 4.35-1.302 0-2.249-.689-2.838-2.065zm9.885-2.285v-11.98c0-1.327.159-2.31.479-2.95.467-.908 1.315-1.363 2.543-1.363 1.204 0 2.028.442 2.47 1.327.295.614.442 1.61.442 2.986v6.635l7.151-9.105c.959-1.229 1.942-1.843 2.949-1.843 1.229 0 2.064.442 2.507 1.327.295.614.442 1.61.442 2.986v11.98c0 1.376-.147 2.371-.442 2.986-.443.909-1.278 1.363-2.507 1.363-1.228 0-2.064-.454-2.506-1.364-.295-.614-.443-1.61-.443-2.985v-6.082l-7.151 8.625c-1.007 1.204-1.978 1.806-2.912 1.806-2.015 0-3.022-1.45-3.022-4.35zm9.51-18.025c-1.671 0-3.047-.43-4.129-1.29-1.007-.787-1.511-1.66-1.511-2.618 0-1.253.59-1.88 1.769-1.88.664 0 1.241.369 1.733 1.106.516.737 1.229 1.106 2.138 1.106.958 0 1.671-.369 2.138-1.106.467-.737 1.02-1.106 1.659-1.106 1.204 0 1.806.627 1.806 1.88 0 1.254-.651 2.249-1.954 2.986-1.081.614-2.298.922-3.649.922z" fill="#59C164"/><path d="M18.67 21.004h7l4.668 9.335H14.003l4.667-9.335z" fill="#2C2F53"/><path d="M28.005 18.67H16.336a2.334 2.334 0 100 4.667h11.669a2.334 2.334 0 100-4.667z" fill="#1E2147"/><path d="M32.672 16.336H11.67a2.334 2.334 0 100 4.668h21.003a2.334 2.334 0 100-4.668z" fill="#1E2147"/><path d="M33.84 2.334H10.501a8.168 8.168 0 100 16.336h23.337a8.168 8.168 0 000-16.336z" fill="#2C2F53"/><path d="M16.336 28.005h11.67a2.334 2.334 0 010 4.667h-11.67a2.334 2.334 0 110-4.667zm9.335-17.503a8.168 8.168 0 1016.336 0 8.168 8.168 0 00-16.336 0z" fill="#4C4F6E"/><path d="M28.005 10.502a5.835 5.835 0 1011.67 0 5.835 5.835 0 00-11.67 0z" fill="#2C2F53"/><path d="M30.338 10.502a3.5 3.5 0 107.002 0 3.5 3.5 0 00-7.002 0zM8.168 0h28.005a8.168 8.168 0 00-8.168 8.168v1.167a4.667 4.667 0 01-4.668 4.668H4.667A4.667 4.667 0 010 9.335V8.168A8.168 8.168 0 018.168 0z" fill="#5BE268"/></svg>