<svg width="42" height="45" viewBox="0 0 42 45" fill="none" xmlns="http://www.w3.org/2000/svg">
<path d="M17.251 4.27109C19.499 2.19025 22.9698 2.19025 25.2178 4.27109C26.323 5.29414 27.7864 5.85264 29.2923 5.83101C32.251 5.78851 34.8017 7.93735 35.2447 10.8631L35.3234 11.3829C35.5538 12.9046 36.3235 14.3032 37.4808 15.3178C39.824 17.3721 40.4367 20.7989 38.9255 23.5243L38.8311 23.6945C38.0745 25.059 37.8101 26.6422 38.0822 28.1785L38.162 28.6289C38.6875 31.596 36.9972 34.5248 34.1754 35.5818C32.7538 36.1143 31.5683 37.1576 30.8666 38.5038L30.7066 38.8109C29.3298 41.452 26.1697 42.6121 23.4111 41.489C22.0156 40.9209 20.4533 40.9209 19.0578 41.489C16.2992 42.6121 13.139 41.452 11.7623 38.8109L11.6022 38.5038C10.9005 37.1576 9.715 36.1143 8.29341 35.5818C5.47161 34.5248 3.78137 31.596 4.30688 28.6289L4.38666 28.1785C4.65876 26.6422 4.39433 25.059 3.63773 23.6945L3.54333 23.5243C2.03217 20.7989 2.64481 17.3721 4.98806 15.3178C6.14536 14.3032 6.915 12.9046 7.14541 11.3829L7.22411 10.8631C7.6671 7.93735 10.2178 5.78851 13.1766 5.83101C14.6825 5.85264 16.1458 5.29414 17.251 4.27109Z" fill="#EDEDED"/>
<path d="M13.512 18.4893C13.512 17.5962 13.8444 16.825 14.5091 16.1755C15.1887 15.5125 16.016 15.181 16.991 15.181C17.9807 15.181 18.808 15.5058 19.4728 16.1552C20.1376 16.7912 20.47 17.5692 20.47 18.4893C20.47 19.3958 20.1376 20.1738 19.4728 20.8233C18.808 21.4728 17.9807 21.7975 16.991 21.7975C16.016 21.7975 15.1887 21.4728 14.5091 20.8233C13.8444 20.1738 13.512 19.3958 13.512 18.4893ZM15.8387 18.4893C15.8387 18.7734 15.9495 19.0305 16.1711 19.2605C16.4074 19.477 16.6807 19.5852 16.991 19.5852C17.316 19.5852 17.5966 19.477 17.833 19.2605C18.0694 19.044 18.1876 18.7869 18.1876 18.4893C18.1876 18.1781 18.0694 17.921 17.833 17.718C17.6114 17.5015 17.3307 17.3933 16.991 17.3933C16.666 17.3933 16.3927 17.5015 16.1711 17.718C15.9495 17.9345 15.8387 18.1916 15.8387 18.4893ZM21.9989 27.0541C21.9989 26.1611 22.3313 25.3899 22.9961 24.7404C23.6757 24.0774 24.5029 23.7459 25.4779 23.7459C26.4677 23.7459 27.295 24.0706 27.9598 24.7201C28.6246 25.356 28.9569 26.134 28.9569 27.0541C28.9569 27.9607 28.6246 28.7387 27.9598 29.3882C27.295 30.0376 26.4677 30.3624 25.4779 30.3624C24.5029 30.3624 23.6757 30.0376 22.9961 29.3882C22.3313 28.7387 21.9989 27.9607 21.9989 27.0541ZM24.3257 27.0541C24.3257 27.3383 24.4365 27.5953 24.6581 27.8254C24.8944 28.0419 25.1677 28.1501 25.4779 28.1501C25.8177 28.1501 26.0984 28.0486 26.32 27.8457C26.5416 27.6292 26.6524 27.3653 26.6524 27.0541C26.6524 26.7294 26.5416 26.4655 26.32 26.2626C26.1132 26.0596 25.8325 25.9581 25.4779 25.9581C25.1529 25.9581 24.8796 26.0664 24.6581 26.2829C24.4365 26.4994 24.3257 26.7565 24.3257 27.0541ZM17.1461 30.5247C16.7768 30.5247 16.4665 30.4097 16.2154 30.1797C15.9642 29.9497 15.8387 29.6655 15.8387 29.3273C15.8387 29.0025 16.0233 28.5425 16.3927 27.9471L23.7052 16.2364C24.1927 15.4652 24.7245 15.0796 25.3007 15.0796C26.2018 15.0796 26.6524 15.4246 26.6524 16.1146C26.6524 16.4664 26.5047 16.8791 26.2092 17.3527L18.7194 29.3476C18.2319 30.1323 17.7074 30.5247 17.1461 30.5247Z" fill="#EB5757"/>
</svg>
