<svg width="42" height="45" viewBox="0 0 42 45" fill="none" xmlns="http://www.w3.org/2000/svg">
<path d="M17.1028 4.2711C19.3508 2.19026 22.8216 2.19026 25.0696 4.2711C26.1748 5.29416 27.6382 5.85266 29.1441 5.83103C32.1028 5.78852 34.6535 7.93737 35.0965 10.8631L35.1752 11.3829C35.4056 12.9046 36.1753 14.3033 37.3326 15.3179C39.6758 17.3722 40.2885 20.799 38.7773 23.5243L38.6829 23.6946C37.9263 25.0591 37.6619 26.6423 37.934 28.1786L38.0138 28.6291C38.5393 31.5961 36.849 34.5249 34.0272 35.5819C32.6056 36.1144 31.4201 37.1577 30.7184 38.5039L30.5583 38.811C29.1816 41.4522 26.0215 42.6123 23.2629 41.4892C21.8674 40.9211 20.3051 40.9211 18.9096 41.4892C16.151 42.6123 12.9908 41.4522 11.6141 38.811L11.454 38.5039C10.7523 37.1577 9.5668 36.1144 8.1452 35.5819C5.32342 34.5249 3.63318 31.5961 4.15868 28.6291L4.23846 28.1786C4.51056 26.6423 4.24614 25.0591 3.48953 23.6946L3.39513 23.5243C1.88397 20.799 2.49662 17.3722 4.83986 15.3179C5.99716 14.3033 6.7668 12.9046 6.99721 11.3829L7.07592 10.8631C7.51891 7.93737 10.0696 5.78852 13.0284 5.83103C14.5343 5.85266 15.9976 5.29416 17.1028 4.2711Z" fill="#EDEDED"/>
<path d="M21.0862 13.4548L24.9596 18.4202L30.8789 20.5697L27.3535 25.788L27.1384 32.0819L21.0862 30.3415L15.034 32.0819L14.8189 25.788L11.2935 20.5697L17.2128 18.4202L21.0862 13.4548Z" fill="#A4CD00"/>
</svg>
